HIERARCHY
ROOT Hips
{
	OFFSET -0.001795 -0.223333 0.028219
	CHANNELS 6 Xposition Yposition Zposition Zrotation Yrotation Xrotation 
	JOINT LeftUpLeg
	{
		OFFSET 0.069520 -0.091406 -0.006815
		CHANNELS 3 Zrotation Yrotation Xrotation
		JOINT LeftLeg
		{
			OFFSET 0.034277 -0.375199 -0.004496
			CHANNELS 3 Zrotation Yrotation Xrotation
			JOINT LeftFoot
			{
				OFFSET -0.013596 -0.397961 -0.043693
				CHANNELS 3 Zrotation Yrotation Xrotation
				JOINT LeftToe
				{
					OFFSET 0.026358 -0.055791 0.119288
					CHANNELS 3 Zrotation Yrotation Xrotation
					End Site
					{
						OFFSET 0.000000 0.000000 0.000000
					}
				}
			}
		}
	}
	JOINT RightUpLeg
	{
		OFFSET -0.067670 -0.090522 -0.004320
		CHANNELS 3 Zrotation Yrotation Xrotation
		JOINT RightLeg
		{
			OFFSET -0.038290 -0.382569 -0.008850
			CHANNELS 3 Zrotation Yrotation Xrotation
			JOINT RightFoot
			{
				OFFSET 0.015774 -0.398415 -0.042312
				CHANNELS 3 Zrotation Yrotation Xrotation
				JOINT RightToe
				{
					OFFSET -0.025372 -0.048144 0.123348
					CHANNELS 3 Zrotation Yrotation Xrotation
					End Site
					{
						OFFSET 0.000000 0.000000 0.000000
					}
				}
			}
		}
	}
	JOINT Spine
	{
		OFFSET -0.002533 0.108963 -0.026696
		CHANNELS 3 Zrotation Yrotation Xrotation
		JOINT Spine1
		{
			OFFSET 0.005487 0.135180 0.001092
			CHANNELS 3 Zrotation Yrotation Xrotation
			JOINT Spine2
			{
				OFFSET 0.001457 0.052922 0.025425
				CHANNELS 3 Zrotation Yrotation Xrotation
				JOINT Neck
				{
					OFFSET -0.002778 0.213870 -0.042857
					CHANNELS 3 Zrotation Yrotation Xrotation
					JOINT Head
					{
						OFFSET 0.005152 0.064970 0.051349
						CHANNELS 3 Zrotation Yrotation Xrotation
						End Site
						{
							OFFSET 0.000000 0.000000 0.000000
						}
					}
				}
				JOINT LeftShoulder
				{
					OFFSET 0.078845 0.121749 -0.034090
					CHANNELS 3 Zrotation Yrotation Xrotation
					JOINT LeftArm
					{
						OFFSET 0.090977 0.030469 -0.008868
						CHANNELS 3 Zrotation Yrotation Xrotation
						JOINT LeftForeArm
						{
							OFFSET 0.259612 -0.012772 -0.027456
							CHANNELS 3 Zrotation Yrotation Xrotation
							JOINT LeftHand
							{
								OFFSET 0.249234 0.008986 -0.001171
								CHANNELS 3 Zrotation Yrotation Xrotation
								End Site
								{
									OFFSET 0.000000 0.000000 0.000000
								}
							}
						}
					}
				}
				JOINT RightShoulder
				{
					OFFSET -0.081759 0.118833 -0.038615
					CHANNELS 3 Zrotation Yrotation Xrotation
					JOINT RightArm
					{
						OFFSET -0.096012 0.032551 -0.009143
						CHANNELS 3 Zrotation Yrotation Xrotation
						JOINT RightForeArm
						{
							OFFSET -0.253742 -0.013329 -0.021401
							CHANNELS 3 Zrotation Yrotation Xrotation
							JOINT RightHand
							{
								OFFSET -0.255298 0.007772 -0.005559
								CHANNELS 3 Zrotation Yrotation Xrotation
								End Site
								{
									OFFSET 0.000000 0.000000 0.000000
								}
							}
						}
					}
				}
			}
		}
	}
}
MOTION
Frames: 13
Frame Time: 0.050000
0.000000 0.947322 0.000000 -5.855047 9.021464 3.424530 14.139740 -0.302312 -16.685095 -6.444366 0.658265 10.102070 -0.073457 9.330731 24.010980 0.000000 0.000000 0.000000 -5.452440 0.631102 -12.187015 0.863087 0.083505 14.694760 -2.151715 -8.961404 19.348870 0.000000 0.000000 0.000000 -7.752800 -0.071420 34.265444 6.541962 -1.741440 -12.476657 -0.748967 -1.869051 21.210545 -6.472153 5.853815 -9.251850 0.000000 0.000000 0.000000 -17.944512 -22.039855 10.009377 -45.180131 -24.632416 2.105857 -2.946304 -37.437150 2.603345 0.000000 0.000000 0.000000 10.957400 23.078864 10.457614 55.510539 9.502540 -2.731477 16.940356 50.237809 10.568012 0.000000 0.000000 0.000000 
-0.011878 0.949512 0.000360 -5.145307 10.498561 3.179645 13.739669 -0.414900 -15.793048 -5.360451 0.445715 9.021086 -2.438909 6.256887 23.140423 0.000000 0.000000 0.000000 -5.997649 0.509045 -11.423830 1.377645 -0.096686 14.353981 -1.969314 -8.409835 19.350088 0.000000 0.000000 0.000000 -6.621044 -0.526961 33.054140 4.971213 -1.140116 -12.678212 0.100934 -3.129478 22.130956 -8.338056 7.329439 -8.380210 0.000000 0.000000 0.000000 -21.071786 -22.421026 10.853887 -43.808848 -23.919115 1.591769 -4.926180 -40.376607 3.637221 0.000000 0.000000 0.000000 10.085548 23.586725 10.422183 55.287939 7.630284 -3.690382 18.825712 53.386143 12.343379 0.000000 0.000000 0.000000 
-0.022925 0.951247 0.000632 -4.471584 10.990553 2.589398 12.838183 -0.485953 -14.841133 -4.434821 0.279512 9.432274 -1.974259 6.158225 20.634035 0.000000 0.000000 0.000000 -5.869006 0.486152 -11.046196 0.954835 -0.009875 14.846332 -1.925597 -8.275967 19.523150 0.000000 0.000000 0.000000 -5.195321 -0.914237 31.652480 5.651676 -1.466849 -11.557125 -1.635782 -2.211751 20.897826 -5.915009 5.526326 -5.348927 0.000000 0.000000 0.000000 -21.288879 -23.685133 11.124323 -42.476666 -23.384095 1.528108 -7.759124 -42.682069 4.803067 0.000000 0.000000 0.000000 11.207199 23.197742 10.678691 54.299626 7.250272 -3.707463 17.674269 53.154339 11.719295 0.000000 0.000000 0.000000 
-0.033519 0.952904 0.000562 -3.894399 12.279988 2.169133 12.354716 -0.553587 -13.620217 -4.567913 0.298513 8.075567 -1.030600 7.307469 19.552890 0.000000 0.000000 0.000000 -6.615530 0.335050 -9.547252 1.323515 -0.128192 13.287077 -2.848168 -9.383826 17.721507 0.000000 0.000000 0.000000 -4.655977 -1.067934 30.031218 5.907606 -1.625119 -10.648606 -1.475140 -3.597089 21.549510 -6.794840 6.185502 -5.717103 0.000000 0.000000 0.000000 -20.357177 -22.672882 10.612582 -45.031940 -24.308173 1.975867 -9.455744 -45.341187 5.997871 0.000000 0.000000 0.000000 7.212054 23.535847 9.828460 56.757965 6.941737 -3.914542 16.806910 54.171387 11.589247 0.000000 0.000000 0.000000 
-0.044674 0.954628 0.000542 -3.032787 13.488422 1.239195 11.383501 -0.602058 -12.118290 -3.869770 0.190392 7.467716 -1.198308 6.934651 18.540030 0.000000 0.000000 0.000000 -7.115975 0.207031 -8.208542 1.131276 -0.108359 12.735510 -2.856291 -9.406875 19.680519 0.000000 0.000000 0.000000 -4.057305 -1.260666 29.200220 6.006311 -1.697286 -10.092105 -1.733197 -4.091766 21.190840 -6.147653 5.640360 -5.697284 0.000000 0.000000 0.000000 -19.589183 -21.988941 10.029118 -45.763004 -22.667614 1.449910 -15.520935 -50.054359 9.588675 0.000000 0.000000 0.000000 6.296505 23.424885 9.568584 55.875206 6.388847 -4.072210 21.108023 55.537131 14.237818 0.000000 0.000000 0.000000 
-0.057080 0.956618 0.000555 -2.516062 13.964534 0.816477 11.202909 -0.598144 -11.147314 -3.738415 0.186310 6.643610 -0.882092 7.498282 18.664766 0.000000 0.000000 0.000000 -7.417778 0.133668 -7.081577 1.752865 -0.255404 11.595906 -2.491865 -8.347005 16.246783 0.000000 0.000000 0.000000 -3.432065 -1.309075 27.561852 5.644490 -1.521408 -10.319306 -1.521665 -4.115209 22.374642 -5.391187 5.088669 -7.026188 0.000000 0.000000 0.000000 -19.169221 -22.281742 10.038704 -44.780680 -21.902493 1.002230 -24.766939 -53.252847 15.046729 0.000000 0.000000 0.000000 5.024874 23.148022 9.210140 54.632812 4.624448 -4.903216 28.548921 58.329200 19.606107 0.000000 0.000000 0.000000 
-0.071381 0.957119 0.000930 -2.044950 14.785859 0.516601 11.180784 -0.612463 -10.654331 -3.831995 0.198249 6.152317 -0.242068 8.492768 18.631262 0.000000 0.000000 0.000000 -7.447577 0.084272 -6.198415 2.276211 -0.389636 10.916670 -0.906554 -4.772419 12.489276 0.000000 0.000000 0.000000 -3.014325 -1.308951 25.883838 6.298815 -1.772746 -10.169505 -1.829508 -3.963429 21.983712 -5.078702 4.899902 -7.924898 0.000000 0.000000 0.000000 -18.246121 -21.487778 9.273699 -43.424393 -18.779586 -0.117937 -42.808965 -56.069754 26.169179 0.000000 0.000000 0.000000 4.540933 22.490864 8.908172 52.509890 1.966152 -5.804541 42.810037 60.169262 29.438402 0.000000 0.000000 0.000000 
-0.087281 0.957784 0.001941 -1.925736 14.864100 0.190920 11.780470 -0.590394 -9.841148 -3.883046 0.222938 5.281270 0.291181 9.339967 18.988417 0.000000 0.000000 0.000000 -6.634398 0.111518 -5.204951 2.237230 -0.359420 9.853043 2.142735 2.134268 9.231572 0.000000 0.000000 0.000000 -2.592287 -1.232292 23.944011 6.542854 -1.803238 -10.754004 -1.669184 -3.669972 23.169893 -4.263498 4.356154 -9.112270 0.000000 0.000000 0.000000 -16.628720 -20.469860 8.457511 -42.062074 -16.924692 -0.884424 -60.294935 -55.599716 36.691563 0.000000 0.000000 0.000000 2.438189 21.693975 8.174028 50.991392 -0.128671 -6.529061 58.929403 59.352017 40.058575 0.000000 0.000000 0.000000 
-0.103911 0.957883 0.003765 -1.597005 14.835124 -0.086954 12.485120 -0.574532 -8.989075 -3.831659 0.239199 4.199424 -0.062980 9.209276 20.140868 0.000000 0.000000 0.000000 -5.922123 0.113886 -4.146733 2.215905 -0.334173 8.785064 4.980522 9.201405 6.648734 0.000000 0.000000 0.000000 -2.647455 -1.059038 22.128427 6.829870 -1.926851 -10.656167 -1.624953 -3.284938 23.129237 -3.712896 3.980739 -9.189046 0.000000 0.000000 0.000000 -15.954545 -19.604460 7.838260 -40.031543 -14.203122 -1.726785 -73.079018 -52.650091 42.674478 0.000000 0.000000 0.000000 1.093356 20.651179 7.521577 48.588238 -2.650385 -7.149647 73.658077 55.781041 47.939181 0.000000 0.000000 0.000000 
-0.120620 0.958187 0.006317 -1.464301 14.997877 -0.315927 12.959427 -0.583248 -7.854287 -3.451685 0.230008 2.383995 0.223859 9.965302 21.341367 0.000000 0.000000 0.000000 -4.946750 0.127675 -3.413962 2.339746 -0.352272 7.975083 4.666020 8.837601 6.022914 0.000000 0.000000 0.000000 -2.313784 -0.982109 20.379275 6.809272 -1.855995 -11.160447 -1.482941 -3.086966 23.579049 -3.475751 3.919609 -10.604059 0.000000 0.000000 0.000000 -15.070575 -19.074097 7.417278 -39.205054 -11.545842 -2.540462 -82.157315 -49.335559 45.818455 0.000000 0.000000 0.000000 -0.244918 20.235063 7.099917 46.938635 -4.643588 -7.627180 84.066984 51.881516 52.476565 0.000000 0.000000 0.000000 
-0.136990 0.957985 0.009197 -1.359700 14.781131 -0.984573 13.506622 -0.582387 -6.505611 -3.086569 0.213584 1.572522 0.485250 10.347667 21.650718 0.000000 0.000000 0.000000 -4.208719 0.087424 -2.240856 2.267817 -0.321495 7.154984 5.171937 10.194939 5.556723 0.000000 0.000000 0.000000 -2.084778 -0.908979 19.066342 6.585851 -1.797299 -10.962674 -1.592850 -2.823306 23.600294 -3.108693 3.642103 -10.190898 0.000000 0.000000 0.000000 -14.498599 -17.829454 6.727886 -38.546277 -9.260310 -3.178283 -86.931527 -45.597763 45.328505 0.000000 0.000000 0.000000 -1.389284 19.238961 6.511019 45.427364 -5.770829 -7.733178 91.751608 48.432172 55.201055 0.000000 0.000000 0.000000 
-0.152923 0.957953 0.012108 -1.389632 14.696489 -1.648859 14.234590 -0.598154 -5.650072 -2.709978 0.190376 1.149108 0.535886 10.685275 22.721695 0.000000 0.000000 0.000000 -3.134669 0.067003 -1.480214 2.266677 -0.312864 6.435606 5.340669 10.303406 6.101947 0.000000 0.000000 0.000000 -1.658651 -0.875181 17.780401 6.417587 -1.764219 -10.697295 -1.536533 -2.593320 23.534908 -2.877633 3.496458 -10.238400 0.000000 0.000000 0.000000 -13.914426 -16.721645 6.120148 -38.498757 -6.807575 -3.891254 -91.049265 -42.747691 45.106772 0.000000 0.000000 0.000000 -1.676178 17.994021 6.032435 44.344993 -6.643890 -7.831294 95.174935 45.533238 54.935219 0.000000 0.000000 0.000000 
-0.167836 0.957674 0.014771 -1.243766 14.478915 -2.141259 14.340022 -0.595499 -4.998285 -2.045079 0.137836 1.062816 1.224061 11.652718 23.304662 0.000000 0.000000 0.000000 -2.553357 0.017985 -0.701576 2.515035 -0.355631 6.052387 5.553553 10.995060 5.676185 0.000000 0.000000 0.000000 -1.525728 -0.814678 16.797245 6.381924 -1.736874 -10.913662 -1.635625 -2.165819 23.914978 -2.274655 3.102191 -10.594518 0.000000 0.000000 0.000000 -13.325143 -15.662151 5.534539 -39.038701 -5.363530 -4.395635 -93.339949 -40.144038 43.714231 0.000000 0.000000 0.000000 -2.225784 16.927143 5.566506 44.907511 -6.768774 -7.959922 97.354214 44.416830 55.905982 0.000000 0.000000 0.000000 
